<?xml version="1.0" encoding="utf-8"?>
<!-- Generator: Adobe Illustrator 16.0.0, SVG Export Plug-In . SVG Version: 6.00 Build 0)  -->
<!DOCTYPE svg PUBLIC "-//W3C//DTD SVG 1.1//EN" "http://www.w3.org/Graphics/SVG/1.1/DTD/svg11.dtd">
<svg version="1.1" id="Capa_1" xmlns="http://www.w3.org/2000/svg" xmlns:xlink="http://www.w3.org/1999/xlink" x="0px" y="0px"
	 width="485.213px" height="485.213px" viewBox="0 0 485.213 485.213" enable-background="new 0 0 485.213 485.213"
	 xml:space="preserve">
<g>
	<path fill="#474747" d="M485.212,272.93v-60.648l-65.535-10.93c-4.564-19.69-12.321-38.083-22.72-54.756l38.646-54.078
		l-42.876-42.883l-54.109,38.619c-16.676-10.365-35.063-18.154-54.76-22.744L272.934,0h-60.649l-10.932,65.51
		c-19.662,4.59-38.083,12.379-54.756,22.744L92.489,49.635L49.607,92.518l38.648,54.078c-10.396,16.645-18.155,35.065-22.717,54.756
		l-65.537,10.93v60.648l65.537,10.931c4.562,19.695,12.32,38.088,22.717,54.759l-38.648,54.105l42.881,42.881l54.137-38.643
		c16.646,10.393,35.065,18.153,54.729,22.714l10.932,65.535h60.649l10.926-65.535c19.663-4.561,38.084-12.321,54.76-22.714
		l54.109,38.643l42.876-42.881l-38.646-54.105c10.397-16.671,18.154-35.092,22.72-54.759L485.212,272.93z M242.607,363.906
		c-66.988,0-121.302-54.311-121.302-121.3s54.313-121.302,121.302-121.302c66.991,0,121.303,54.313,121.303,121.302
		S309.599,363.906,242.607,363.906z"/>
</g>
</svg>
